:SAMPLES-PER-SECOND 30
:FULLY-SPECIFIED
:DEGREES
49
root  34.87350584 36.50842201 -14.95314621 8.244767189 -1.490588546 3.303538561
lowerback  -8.545919418 0.1101590022 -0.01195395738
upperback  -3.426280022 0.5819889903 -3.269342661
thorax  1.277160048 0.4296087027 -3.31539011
lowerneck  -14.85639954 -0.3273362815 -0.9109500051
upperneck  15.65240002 -1.785019994 6.58987999
head  7.329199791 -0.4249454439 2.099950075
lclavicle  0 -4.497500157e-015 -2.743230041e-014
lhumerus  -45.22859955 26.77169991 68.83059692
lradius  -0.009002206847 -6.507048965e-006 30.21870041
lwrist  4.824992743e-007 -3.790274832e-007 -26.76519966
lhand  -4.410243308e-031 -36.8064003 -10.72809982
lfingers  90 7.125020027 -90
lthumb  94.78340253 -25.56628479 100.9737506
rclavicle  0 -4.497500157e-015 -2.743230041e-014
rhumerus  -45.04669952 -9.10242939 -78.21640015
rradius  -5.16745672e-007 2.214343908e-008 56.76470184
rwrist  -3.062178075e-005 0.020962568 -165.1880035
rhand  -1.7661092e-031 -1.425629973 -8.007570267
rfingers  -90 -7.125020027 -90
rthumb  -86.48991654 -7.749001757 -65.53800254
rfemur  -11.80689812 15.53269482 13.74173641
rtibia  -1.273522735 0.1459946483 21.24424171
rfoot  -0.3912178874 -20.10307884 -38.6222229
rtoes  4.067129194 19.59869679 -101.9683541
lfemur  -8.607318878 -17.94944382 -19.3632679
ltibia  1.918861151 -0.08517562598 15.44586849
lfoot  0.5990057588 -25.72473907 35.99447632
ltoes  -8.658636908 -18.09811937 -116.1147579
50
root  34.87427178 36.50836794 -14.95523528 8.288739204 -1.469681501 3.286946058
lowerback  -8.524669647 0.0975792706 -0.05417362228
upperback  -3.420109987 0.5677829981 -3.268765688
thorax  1.270730019 0.4286359549 -3.289900064
lowerneck  -14.85910034 -0.3262404203 -0.9174900055
upperneck  15.65380001 -1.774389982 6.594779968
head  7.332882881 -0.4238458574 2.10143733
lclavicle  0 -4.497500157e-015 -2.743230041e-014
lhumerus  -45.25019836 26.74600029 68.84629822
lradius  -0.009002206847 -6.507048965e-006 30.21649933
lwrist  4.824992743e-007 -3.790274832e-007 -26.73310089
lhand  -0 -36.78749847 -10.70429993
lfingers  90 7.125020027 -90
lthumb  94.76952115 -25.54365234 100.9513555
rclavicle  0 -4.497500157e-015 -2.743230041e-014
rhumerus  -45.00049973 -8.250870705 -78.67019653
rradius  -5.16745672e-007 2.214343908e-008 57.93780136
rwrist  -3.062178075e-005 0.020962568 -165.9170074
rhand  -1.766222577e-031 -1.566460013 -7.760399818
rfingers  -90 -7.125020027 -90
rthumb  -86.41292789 -7.96608764 -65.66095393
rfemur  -11.8637991 15.54134464 13.74611664
rtibia  -1.272680044 0.1538483351 21.25384331
rfoot  -0.4001393616 -20.08962631 -38.64434814
rtoes  4.059599355 19.60019903 -101.9459066
lfemur  -8.692265511 -17.95957756 -19.31273079
ltibia  1.882654071 -0.07543601096 15.50345039
lfoot  0.5900371075 -25.75749397 35.95937347
ltoes  -8.637597211 -18.10790813 -116.0470466
51
root  34.87669577 36.50706134 -14.95776289 8.335283279 -1.477095604 3.283364534
lowerback  -8.513550758 0.09812091291 -0.0749187097
upperback  -3.408040047 0.5699139833 -3.268431425
thorax  1.277160048 0.4274922311 -3.288510084
lowerneck  -14.8508997 -0.3243989944 -0.8789539933
upperneck  15.6413002 -1.780609965 6.575530052
head  7.32506609 -0.4226007164 2.089585304
lclavicle  0 -4.497500157e-015 -2.743230041e-014
lhumerus  -45.27009964 26.77619934 68.79070282
lradius  -0.009002206847 -6.507048965e-006 30.21666145
lwrist  4.824992743e-007 -3.790274832e-007 -26.75669861
lhand  -4.412514729e-031 -36.84579849 -10.66149998
lfingers  90 7.125020027 -90
lthumb  94.78783405 -25.49959787 101.0098576
rclavicle  0 -4.497500157e-015 -2.743230041e-014
rhumerus  -44.93859863 -7.415360451 -79.15630341
rradius  -5.16745672e-007 2.214343908e-008 59.19919968
rwrist  -3.062178075e-005 0.020962568 -166.2440033
rhand  -1.765730159e-031 -0.7895280123 -8.124389648
rfingers  -90 -7.125020027 -90
rthumb  -86.42189644 -7.680348469 -64.92584438
rfemur  -11.94951725 15.5621376 13.7335844
rtibia  -1.281913519 0.1772691458 21.30038452
rfoot  -0.4132578373 -20.0369606 -38.64432144
rtoes  4.081405523 19.59584058 -102.0109183
lfemur  -8.79833889 -17.97498703 -19.2745533
ltibia  1.836961031 -0.08075511456 15.57778454
lfoot  0.5791182518 -25.77150917 35.93618393
ltoes  -8.633167627 -18.1099652 -116.0327955
52
root  34.87975353 36.50658975 -14.95894635 8.374908447 -1.483385563 3.277855158
lowerback  -8.504449844 0.0979795903 -0.1132477447
upperback  -3.397480011 0.5719609857 -3.268819809
thorax  1.282930017 0.4261817932 -3.26444006
lowerneck  -14.84869957 -0.3201439977 -0.8601840138
upperneck  15.6303997 -1.773599982 6.555349827
head  7.319086552 -0.4213663042 2.081650972
lclavicle  0 -4.497500157e-015 -2.743230041e-014
lhumerus  -45.29610062 26.83659935 68.74720001
lradius  -0.009002206847 -6.507048965e-006 30.20646667
lwrist  4.824992743e-007 -3.790274832e-007 -26.82139969
lhand  -4.408815821e-031 -36.78160095 -10.64990044
lfingers  90 7.125020027 -90
lthumb  94.75529366 -25.49032005 100.9401268
rclavicle  0 -4.497500157e-015 -2.743230041e-014
rhumerus  -44.85779953 -6.532319546 -79.64450073
rradius  -5.16745672e-007 2.214343908e-008 60.46500015
rwrist  -3.062178075e-005 0.020962568 -166.7700043
rhand  -1.765770877e-031 -0.8801969886 -7.945320129
rfingers  -90 -7.125020027 -90
rthumb  -86.36234611 -7.837220148 -65.0037395
rfemur  -12.0208683 15.5915699 13.72060013
rtibia  -1.285043597 0.19212991 21.33790779
rfoot  -0.4383765757 -20.01288223 -38.67780685
rtoes  4.104057644 19.59128713 -102.0784669
lfemur  -8.865262985 -17.92815018 -19.24526978
ltibia  1.818284512 -0.05831429362 15.60945988
lfoot  0.5993918777 -25.82358742 35.95271301
ltoes  -8.672623921 -18.09159535 -116.1597915
53
root  34.87965741 36.50437302 -14.95920617 8.388010979 -1.471057177 3.287667274
lowerback  -8.495149612 0.09345094115 -0.1205995455
upperback  -3.407049894 0.5666329861 -3.270410061
thorax  1.267519951 0.4247089922 -3.256340027
lowerneck  -14.82439995 -0.3107100129 -0.8392050266
upperneck  15.61089993 -1.761610031 6.543910027
head  7.311276436 -0.4202989638 2.072697878
lclavicle  0 -4.497500157e-015 -2.743230041e-014
lhumerus  -45.34540176 26.81550026 68.74369812
lradius  -0.009002206847 -6.507048965e-006 30.23257065
lwrist  4.824992743e-007 -3.790274832e-007 -26.82169914
lhand  -4.409943876e-031 -36.80120087 -10.67949963
lfingers  90 7.125020027 -90
lthumb  94.77070443 -25.51869475 100.9637711
rclavicle  0 -4.497500157e-015 -2.743230041e-014
rhumerus  -44.75479889 -5.881030083 -80.01429749
rradius  -5.16745672e-007 2.214343908e-008 61.71009827
rwrist  -3.062178075e-005 0.020962568 -166.9149933
rhand  -1.765817646e-031 -0.973976016 -8.001350403
rfingers  -90 -7.125020027 -90
rthumb  -86.40371753 -7.780956834 -65.09815066
rfemur  -12.04241848 15.55379772 13.70419502
rtibia  -1.284766316 0.1707934439 21.3628006
rfoot  -0.4548164308 -20.06819344 -38.65909576
rtoes  4.123615587 19.58733438 -102.1368007
lfemur  -8.846238136 -17.87807465 -19.26820564
ltibia  1.852423787 -0.0202450864 15.55793762
lfoot  0.6070406437 -25.88098717 35.93231964
ltoes  -8.663450655 -18.09587556 -116.1302548
54
root  34.87872026 36.50376027 -14.95922119 8.400917053 -1.46117568 3.268490314
lowerback  -8.495249748 0.08712587506 -0.1290811598
upperback  -3.410959959 0.5597299933 -3.274729967
thorax  1.26312995 0.421604991 -3.256700039
lowerneck  -14.82699966 -0.3071480095 -0.8458009958
upperneck  15.61310005 -1.755310178 6.544680119
head  7.311420441 -0.4195549786 2.0753479
lclavicle  0 -4.497500157e-015 -2.743230041e-014
lhumerus  -45.37850189 26.83469963 68.72599792
lradius  -0.009002206847 -6.507048965e-006 30.22831535
lwrist  4.824992743e-007 -3.790274832e-007 -26.83569717
lhand  -0 -36.79790115 -10.65089989
lfingers  90 7.125020027 -90
lthumb  94.76314173 -25.49078352 100.9576455
rclavicle  0 -4.497500157e-015 -2.743230041e-014
rhumerus  -44.61309814 -5.338010311 -80.26789856
rradius  -5.16745672e-007 2.214343908e-008 62.89910126
rwrist  -3.062178075e-005 0.020962568 -168.0809937
rhand  -1.76590321e-031 -1.12548995 -8.000379562
rfingers  -90 -7.125020027 -90
rthumb  -86.43148973 -7.772974448 -65.2455909
rfemur  -12.04298306 15.55133629 13.71590137
rtibia  -1.272504687 0.1802235395 21.33680725
rfoot  -0.4496338069 -20.05577469 -38.67564774
rtoes  4.099619752 19.5921813 -102.0652319
lfemur  -8.88717556 -17.87294197 -19.22698212
ltibia  1.827845216 -0.01367693394 15.6075325
lfoot  0.614883244 -25.91049957 35.92387772
ltoes  -8.63785558 -18.1077881 -116.0478779
55
root  34.87587275 36.50551143 -14.95852583 8.468021393 -1.392901063 3.267546654
lowerback  -8.456809998 0.06613270938 -0.1845822334
upperback  -3.395499945 0.530903995 -3.229959965
thorax  1.255650043 0.4061119854 -3.181499958
lowerneck  -14.81977463 -0.3185549974 -0.8825730085
upperneck  15.61270046 -1.753799915 6.512499809
head  7.306993961 -0.4185107052 2.073102951
lclavicle  0 -4.497500157e-015 -2.743230041e-014
lhumerus  -45.4239006 26.96940041 68.71790314
lradius  -0.009002206847 -6.507048965e-006 30.20969772
lwrist  4.824992743e-007 -3.790274832e-007 -26.95619965
lhand  -4.408510833e-031 -36.77629852 -10.63440037
lfingers  90 7.125020027 -90
lthumb  94.74955311 -25.4753316 100.9330336
rclavicle  0 -4.497500157e-015 -2.743230041e-014
rhumerus  -44.46289825 -4.636310101 -80.55310059
rradius  -5.16745672e-007 2.214343908e-008 64.10030365
rwrist  -3.062178075e-005 0.020962568 -168.5449982
rhand  -1.76566867e-031 -0.628271997 -7.93460989
rfingers  -90 -7.125020027 -90
rthumb  -86.31026608 -7.861625935 -64.75787775
rfemur  -12.13744831 15.54133797 13.71551037
rtibia  -1.289438248 0.2110361159 21.38786507
rfoot  -0.476749897 -19.98427773 -38.72244644
rtoes  4.076647025 19.59679376 -101.9967304
lfemur  -9.002887726 -17.96166611 -19.18336487
ltibia  1.799095869 -0.01758990996 15.66136169
lfoot  0.6037971973 -25.90623093 35.89862061
ltoes  -8.644385668 -18.10475305 -116.0688898
